<?xml version="1.0" encoding="UTF-8"?>
<svg width="56px" height="34px" viewBox="0 0 56 34" version="1.1" xmlns="http://www.w3.org/2000/svg" xmlns:xlink="http://www.w3.org/1999/xlink">
    <title>Group 9</title>
    <g id="Page-1" stroke="none" stroke-width="1" fill="none" fill-rule="evenodd">
        <g id="Group-9">
            <polygon id="Fill-1" fill="#005BAB" points="0.105355936 22.705628 55.736992 22.705628 55.736992 0.105355936 0.105355936 0.105355936"></polygon>
            <g id="Group-8" transform="translate(1.138983, 1.170305)">
                <path d="M0.0530766123,10.2351014 C0.0530766123,15.6999423 11.2575381,20.2313866 26.7821624,20.2313866 C42.3067868,20.2313866 53.511533,15.6999423 53.511533,10.2351014 C53.511533,4.77054527 42.3067868,0.239101026 26.7821624,0.239101026 C11.2575381,0.239101026 0.0530766123,4.77054527 0.0530766123,10.2351014" id="Fill-2" fill="#FFE900"></path>
                <path d="M25.2049841,13.4390609 C25.3672891,13.683088 25.558923,13.9108846 25.7949773,14.1469389 L19.7785838,14.1469389 C19.7785838,13.9108846 19.5513567,13.4231151 19.2928075,13.0387083 C19.0342584,12.6545863 17.6552346,10.5611353 17.6552346,10.5611353 L17.6552346,13.4390609 C17.6552346,13.6751151 17.6552346,13.9108846 17.7731194,14.1469389 L12.7564683,14.1469389 C12.8743531,13.9077524 12.8743531,13.6751151 12.8743531,13.4390609 L12.8743531,6.59690467 C12.8743531,6.36113517 12.8743531,6.12508092 12.7564683,5.88902667 L17.7731194,5.88902667 C17.6552346,6.12508092 17.6552346,6.36113517 17.6552346,6.59690467 L17.6552346,9.58331835 C17.6552346,9.58331835 19.259777,7.49954877 19.6256754,7.01120977 C19.9035872,6.64018603 20.2504076,6.12508092 20.2504076,5.88902667 L25.47834,5.88902667 C25.1187061,6.12508092 24.7180688,6.56159619 24.3948823,6.95824706 C24.1092823,7.30819961 22.4782585,9.29230817 22.4782585,9.29230817 C22.4782585,9.29230817 24.8909095,12.9663829 25.2049841,13.4390609 L25.2049841,13.4390609 Z M26.7821909,6.59690467 L26.7821909,13.4390609 C26.7821909,13.6751151 26.7821909,13.9108846 26.6643061,14.1469389 L36.343954,14.1469389 L36.343954,11.8558744 C36.1078997,11.9737591 35.8718455,11.9737591 35.6357912,11.9737591 L31.5630724,11.9737591 L31.5630724,10.8871692 L35.4746251,10.8871692 L35.4746251,9.1487963 L31.5630724,9.1487963 L31.5630724,8.06220642 L35.6357912,8.06220642 C35.8718455,8.06220642 36.1078997,8.06220642 36.343954,8.17724371 L36.343954,5.88902667 L26.6643061,5.88902667 C26.7821909,6.12508092 26.7821909,6.36113517 26.7821909,6.59690467 L26.7821909,6.59690467 Z M49.7591816,13.4367829 C49.8503003,13.6751151 49.9408494,13.9108846 50.1472901,14.1469389 L44.901134,14.1469389 C44.9281848,13.9108846 44.8345035,13.6751151 44.7422458,13.4390609 C44.7422458,13.4390609 44.6619475,13.2477117 44.5534594,12.9660981 C44.546056,12.9475897 44.5064763,12.843088 44.5064763,12.843088 L41.4841847,12.843088 L41.4397644,12.9666676 C41.4397644,12.9666676 41.3546254,13.2010134 41.2700559,13.4390609 C41.1860559,13.6751151 41.0994932,13.9108846 41.1350864,14.1469389 L36.9957371,14.1469389 C37.1993303,13.9108846 37.2841845,13.6773931 37.3701778,13.4399151 C37.506571,13.0640507 39.659249,7.12937927 39.8525914,6.59690467 C39.9382999,6.36113517 40.0240084,6.12508092 39.9918321,5.88902667 L46.9849036,5.88902667 C46.9236832,6.12508092 47.0484019,6.35971144 47.1392358,6.59690467 C47.3414053,7.12482333 49.5823545,12.9749253 49.7591816,13.4367829 L49.7591816,13.4367829 Z M43.8427339,11.1044303 C43.4637373,10.1120912 43.145961,9.27864037 43.1132153,9.19293189 C43.0229509,8.95630815 42.9503407,8.64963695 42.9503407,8.64963695 C42.9503407,8.64963695 42.8922526,8.95630815 42.8073983,9.19264714 C42.7803475,9.26867427 42.4751,10.111237 42.1146118,11.1044303 L43.8427339,11.1044303 Z M10.384536,5.88902667 L4.93307816,5.88902667 C5.05124766,6.12508092 5.05124766,6.36113517 5.05124766,6.59690467 L5.05124766,13.4390609 C5.05124766,13.6751151 5.05124766,13.9108846 4.93307816,14.1469389 L10.384536,14.1469389 C10.2666513,13.9108846 10.2666513,13.6751151 10.2666513,13.4390609 L10.2666513,6.59690467 C10.2666513,6.36113517 10.2666513,6.12508092 10.384536,5.88902667 L10.384536,5.88902667 Z M48.0786121,6.5410945 C48.0786121,5.9109521 48.5344901,5.45450462 49.165202,5.45450462 C49.7660155,5.45450462 50.2517918,5.9109521 50.2517918,6.5410945 C50.2517918,7.17152164 49.7956291,7.62739963 49.165202,7.62739963 C48.5344901,7.62739963 48.0786121,7.17152164 48.0786121,6.5410945 L48.0786121,6.5410945 Z M48.2944494,6.5410945 C48.2944494,7.02003689 48.6583545,7.4101386 49.1649172,7.4101386 C49.6438596,7.4101386 50.0328223,7.04765723 50.0328223,6.5410945 C50.0328223,6.06215211 49.6717647,5.67176565 49.1649172,5.67176565 C48.6583545,5.67176565 48.2944494,6.03453177 48.2944494,6.5410945 L48.2944494,6.5410945 Z M48.9479409,7.19287757 L48.7545985,7.19287757 L48.7545985,5.88902667 L49.243507,5.88902667 C49.4684562,5.88902667 49.6509782,6.08664024 49.6509782,6.3115894 C49.6509782,6.47275551 49.5572969,6.62537925 49.4217579,6.69257925 L49.7036562,7.19287757 L49.4863952,7.19287757 L49.228985,6.73443688 L48.9479409,6.73443688 L48.9479409,7.19287757 Z M48.9479409,6.5410945 L49.2130392,6.5410945 C49.3480087,6.5410945 49.4576359,6.4465589 49.4576359,6.3115894 C49.4576359,6.17661991 49.3480087,6.08236906 49.2130392,6.08236906 L48.9479409,6.08236906 L48.9479409,6.5410945 Z" id="Fill-4" fill="#005BAB"></path>
                <path d="M8.27374406,28.8559089 L8.27374406,30.2320853 L8.69687628,30.2320853 L8.69687628,27.1907157 L8.27374406,27.1907157 L8.27374406,28.4971293 L7.66324912,28.4971293 L7.66324912,27.2869597 L7.24552707,27.2869597 L7.24552707,30.0606683 L7.66324912,30.0606683 L7.66324912,28.8559089 L8.27374406,28.8559089 Z M6.05699821,27.7636242 L6.05699821,27.2280174 L5.62304565,27.2280174 L5.62304565,27.7636242 L4.61646934,27.7636242 L4.61646934,28.1118682 L7.05816435,28.1118682 L7.05816435,27.7636242 L6.05699821,27.7636242 Z M5.38499818,28.8265801 C5.50088971,28.7354615 5.65351344,28.6899022 5.84258464,28.6899022 C6.03194058,28.6899022 6.18456431,28.7354615 6.30045584,28.8265801 C6.41663212,28.9176988 6.47443551,29.0364378 6.47443551,29.1825123 C6.47443551,29.3328581 6.41663212,29.4533056 6.30045584,29.5438547 C6.18456431,29.6349734 6.03194058,29.6805327 5.84258464,29.6805327 C5.65351344,29.6805327 5.50088971,29.6349734 5.38499818,29.5438547 C5.2688219,29.4533056 5.21073377,29.3328581 5.21073377,29.1825123 C5.21073377,29.0364378 5.2688219,28.9176988 5.38499818,28.8265801 L5.38499818,28.8265801 Z M6.58178467,28.5885327 C6.39242873,28.4381869 6.14612363,28.3635835 5.84258464,28.3635835 C5.63927616,28.3635835 5.46074056,28.3974682 5.30726258,28.464953 C5.15378461,28.5330072 5.03333715,28.6283971 4.9459202,28.751692 C4.8582185,28.8747022 4.81465239,29.0184988 4.81465239,29.1825123 C4.81465239,29.4359361 4.91004223,29.6369666 5.10110664,29.7853191 C5.29188631,29.9331022 5.53933039,30.0071361 5.84258464,30.0071361 C6.14612363,30.0071361 6.39242873,29.9331022 6.58178467,29.7853191 C6.77085586,29.6369666 6.86539146,29.4359361 6.86539146,29.1825123 C6.86539146,28.9362073 6.77085586,28.7380242 6.58178467,28.5885327 L6.58178467,28.5885327 Z M6.25489652,31.5199904 C6.04788634,31.4328582 5.94452363,31.3101328 5.94452363,31.1529531 C5.94452363,30.9923565 6.04788634,30.8684921 6.25489652,30.7810751 C6.4619067,30.6933734 6.74949993,30.6500921 7.11710672,30.6500921 C7.48129657,30.6500921 7.76689658,30.6933734 7.97390676,30.7810751 C8.18091694,30.8684921 8.2845644,30.9923565 8.2845644,31.1529531 C8.2845644,31.3101328 8.18091694,31.4328582 7.97390676,31.5199904 C7.76689658,31.6074074 7.48129657,31.6509735 7.11710672,31.6509735 C6.74949993,31.6509735 6.4619067,31.6074074 6.25489652,31.5199904 L6.25489652,31.5199904 Z M5.93911346,30.5293599 C5.65351344,30.6740107 5.51085581,30.8818751 5.51085581,31.1529531 C5.51085581,31.4211836 5.65351344,31.6270548 5.93911346,31.7714209 C6.22471347,31.9160718 6.61737789,31.9883972 7.11710672,31.9883972 C7.61683556,31.9883972 8.00949998,31.9160718 8.29509999,31.7714209 C8.5807,31.6270548 8.72364238,31.4211836 8.72364238,31.1529531 C8.72364238,30.8818751 8.5807,30.6740107 8.29509999,30.5293599 C8.00949998,30.384709 7.61683556,30.3123836 7.11710672,30.3123836 C6.61737789,30.3123836 6.22471347,30.384709 5.93911346,30.5293599 L5.93911346,30.5293599 Z M12.726029,30.8479904 L12.726029,31.9940921 L13.165107,31.9940921 L13.165107,30.4943361 L9.83984581,30.4943361 L9.83984581,30.8479904 L12.726029,30.8479904 Z M10.3646323,28.7488445 L12.6992629,28.7488445 L12.6992629,28.1918818 L10.3646323,28.1918818 L10.3646323,28.7488445 Z M11.7516289,29.0970886 L13.1332154,29.0970886 L13.1332154,27.3031902 L12.6992629,27.3031902 L12.6992629,27.8496174 L10.3646323,27.8496174 L10.3646323,27.3031902 L9.93096446,27.3031902 L9.93096446,29.0970886 L11.312551,29.0970886 L11.312551,29.6697124 L9.3526458,29.6697124 L9.3526458,30.028492 L13.7007138,30.028492 L13.7007138,29.6697124 L11.7516289,29.6697124 L11.7516289,29.0970886 Z M17.2964834,27.7342953 C17.5123207,27.8217123 17.6202393,27.9458614 17.6202393,28.1061733 C17.6202393,28.2670547 17.5123207,28.3909191 17.2964834,28.4786208 C17.0803614,28.5660377 16.7759681,28.6098886 16.3833037,28.6098886 C15.9906393,28.6098886 15.686246,28.5660377 15.4704088,28.4786208 C15.2542867,28.3909191 15.1463681,28.2670547 15.1463681,28.1061733 C15.1463681,27.9458614 15.2542867,27.8217123 15.4704088,27.7342953 C15.686246,27.6465936 15.9906393,27.6033123 16.3833037,27.6033123 C16.7759681,27.6033123 17.0803614,27.6465936 17.2964834,27.7342953 L17.2964834,27.7342953 Z M17.6230868,28.7246411 C17.9209309,28.583692 18.0701377,28.377536 18.0701377,28.1061733 C18.0701377,27.8350953 17.9209309,27.6280852 17.6230868,27.4854275 C17.324958,27.3427699 16.9117919,27.2712987 16.3833037,27.2712987 C15.8551003,27.2712987 15.4419342,27.3427699 15.1438053,27.4854275 C14.8456765,27.6280852 14.6967545,27.8350953 14.6967545,28.1061733 C14.6967545,28.377536 14.8456765,28.583692 15.1438053,28.7246411 C15.4419342,28.865875 15.8551003,28.9362073 16.3833037,28.9362073 C16.9117919,28.9362073 17.324958,28.865875 17.6230868,28.7246411 L17.6230868,28.7246411 Z M18.0006597,31.1102412 L18.0006597,30.028492 L14.7340562,30.028492 L14.7340562,30.3605056 L17.5667071,30.3605056 L17.5667071,30.789048 L14.7502867,30.789048 L14.7502867,31.9402752 L18.1450258,31.9402752 L18.1450258,31.5974413 L15.1785443,31.5974413 L15.1785443,31.1102412 L18.0006597,31.1102412 Z M14.2092697,29.6161802 L18.5573377,29.6161802 L18.5573377,29.2630954 L14.2092697,29.2630954 L14.2092697,29.6161802 Z M20.9455005,29.49317 L22.2949107,29.49317 L22.2949107,27.9723428 L20.9455005,27.9723428 L20.9455005,29.49317 Z M20.5172428,29.8411293 L22.7234531,29.8411293 L22.7234531,27.6189733 L20.5172428,27.6189733 L20.5172428,29.8411293 Z M21.0579751,30.3770209 L21.0579751,31.8870277 L24.260226,31.8870277 L24.260226,31.528248 L21.4970531,31.528248 L21.4970531,30.3770209 L21.0579751,30.3770209 Z M24.0458125,27.1855902 L23.6067345,27.1855902 L23.6067345,30.7033395 L24.0458125,30.7033395 L24.0458125,29.0219157 L24.7579617,29.0219157 L24.7579617,28.6523157 L24.0458125,28.6523157 L24.0458125,27.1855902 Z M25.9308295,29.49317 L25.9308295,27.9939835 L28.74725,27.9939835 L28.74725,27.6297936 L25.4971617,27.6297936 L25.4971617,29.8519497 L28.7956567,29.8519497 L28.7956567,29.49317 L25.9308295,29.49317 Z M24.940199,31.345726 L29.2988025,31.345726 L29.2988025,30.9818209 L24.940199,30.9818209 L24.940199,31.345726 Z M30.5787348,28.63637 L30.5787348,27.367258 L30.1396568,27.367258 L30.1396568,28.9951496 L33.4059756,28.9951496 L33.4059756,28.63637 L30.5787348,28.63637 Z M30.1074805,30.4732649 L30.1074805,31.8759226 L33.4327417,31.8759226 L33.4327417,31.5174277 L30.5465585,31.5174277 L30.5465585,30.4732649 L30.1074805,30.4732649 Z M29.5505178,29.9911903 L33.9039959,29.9911903 L33.9039959,29.6378208 L29.5505178,29.6378208 L29.5505178,29.9911903 Z M38.4687554,27.8225665 C38.6524165,27.8795157 38.7962131,27.960953 38.8998605,28.0663089 C39.0032232,28.1716648 39.055047,28.293536 39.055047,28.4330615 C39.055047,28.647475 38.9417182,28.8174683 38.7150605,28.9444649 C38.4884029,29.070892 38.1911283,29.1346751 37.8235215,29.1346751 C37.5806334,29.1346751 37.3673588,29.1059157 37.1836977,29.0489666 C36.999752,28.9920174 36.8559554,28.9102954 36.7525926,28.8049394 C36.6489452,28.6998683 36.5971215,28.5760038 36.5971215,28.4330615 C36.5971215,28.293536 36.6489452,28.1716648 36.7525926,28.0663089 C36.8559554,27.960953 36.999752,27.8795157 37.1836977,27.8225665 C37.3673588,27.7653326 37.5806334,27.7368581 37.8235215,27.7368581 C38.0698266,27.7368581 38.2848097,27.7653326 38.4687554,27.8225665 L38.4687554,27.8225665 Z M38.7016775,29.3596242 C38.9551012,29.2739157 39.15243,29.1523293 39.2933792,28.9951496 C39.4343283,28.8382547 39.5049453,28.6506072 39.5049453,28.4330615 C39.5049453,28.2189326 39.4343283,28.0329937 39.2933792,27.8763835 C39.15243,27.7192038 38.9551012,27.5976174 38.7016775,27.5119089 C38.4482537,27.4262004 38.1555351,27.3834885 37.8235215,27.3834885 C37.4915079,27.3834885 37.1996435,27.4262004 36.9479282,27.5119089 C36.696213,27.5976174 36.5000231,27.7192038 36.359074,27.8763835 C36.2178401,28.0329937 36.1475079,28.2189326 36.1475079,28.4330615 C36.1475079,28.6506072 36.2178401,28.8382547 36.359074,28.9951496 C36.5000231,29.1523293 36.696213,29.2739157 36.9479282,29.3596242 C37.1996435,29.4450479 37.4915079,29.4880446 37.8235215,29.4880446 C38.1555351,29.4880446 38.4482537,29.4450479 38.7016775,29.3596242 L38.7016775,29.3596242 Z M35.6603079,29.9427836 L35.6603079,30.3072582 L37.6039825,30.3072582 L37.6039825,31.9992175 L38.0430605,31.9992175 L38.0430605,30.3072582 L40.0080911,30.3072582 L40.0080911,29.9427836 L35.6603079,29.9427836 Z M42.8703556,29.3539293 L42.8703556,27.6349191 L40.6427894,27.6349191 L40.6427894,27.9939835 L42.4258674,27.9939835 L42.4258674,28.9951496 L40.6587352,28.9951496 L40.6587352,30.83717 L41.0551013,30.83717 C41.46542,30.83717 41.8634945,30.8254955 42.2490403,30.8024311 C42.6345861,30.7790819 43.043481,30.7318141 43.4754404,30.6603429 L43.4324438,30.3015632 C43.0113048,30.3696175 42.6149386,30.4154615 42.2436302,30.438526 C41.8723217,30.4618751 41.4904776,30.4732649 41.0978132,30.4732649 L41.0978132,29.3539293 L42.8703556,29.3539293 Z M43.8823421,31.9992175 L44.3214201,31.9992175 L44.3214201,27.1855902 L43.8823421,27.1855902 L43.8823421,31.9992175 Z M47.3200778,29.0597869 C47.1378405,28.9165598 46.9951829,28.751692 46.8915354,28.5643293 C46.7881727,28.3766818 46.736349,28.1776445 46.736349,27.9669326 L46.736349,27.8598682 L47.8232236,27.8598682 L47.8232236,27.5010886 L45.1887557,27.5010886 L45.1887557,27.8598682 L46.2864507,27.8598682 L46.2864507,27.9669326 C46.2864507,28.1884648 46.2357659,28.3974682 46.1338269,28.5936581 C46.0321727,28.7901327 45.889515,28.9629734 45.7055693,29.1130344 C45.5216235,29.2630954 45.3083489,29.3772785 45.0657455,29.4555835 L45.2906947,29.8038276 C45.5760099,29.7041666 45.8260167,29.5538208 46.0401456,29.3539293 C46.2545591,29.1540378 46.4131625,28.92197 46.51681,28.6580106 C46.6272913,28.9080174 46.7890269,29.1244242 47.0014473,29.3086547 C47.2138676,29.4923157 47.4573253,29.6289937 47.7323897,29.7181191 L47.9465185,29.3809802 C47.7110338,29.309509 47.5020304,29.2024446 47.3200778,29.0597869 L47.3200778,29.0597869 Z M46.2864507,31.5709599 L48.5140168,31.5709599 L48.5140168,30.9499294 L46.2864507,30.9499294 L46.2864507,31.5709599 Z M46.2864507,30.6068107 L46.2864507,30.0236514 L45.8527828,30.0236514 L45.8527828,31.9294548 L48.9479694,31.9294548 L48.9479694,30.0236514 L48.5140168,30.0236514 L48.5140168,30.6068107 L46.2864507,30.6068107 Z M48.5088914,29.7930073 L48.9479694,29.7930073 L48.9479694,27.1907157 L48.5088914,27.1907157 L48.5088914,29.7930073 Z" id="Fill-6" fill="#231916"></path>
            </g>
        </g>
    </g>
</svg>